<svg xmlns="http://www.w3.org/2000/svg" version="1.1" xmlns:xlink="http://www.w3.org/1999/xlink" width="1000" height="1000"><metadata><rdf:RDF xmlns:rdf="http://www.w3.org/1999/02/22-rdf-syntax-ns#" xmlns:dc="http://purl.org/dc/elements/1.1/"><rdf:Description><dc:creator>RealFaviconGenerator</dc:creator><dc:source>https://realfavicongenerator.net</dc:source></rdf:Description></rdf:RDF></metadata><g clip-path="url(#SvgjsClipPath1011)"><rect width="1000" height="1000" fill="#ffffff"></rect><g transform="matrix(0.9126466753585397,0,0,0.9126466753585397,150,351.6949152542373)"><svg xmlns="http://www.w3.org/2000/svg" version="1" width="767px" height="325px" viewBox="0 0 767 325" preserveAspectRatio="xMidYMid meet"><g fill="none">
  <path d="M0 254.5 l0 -70.5 24.4 0 24.4 0 0.6 2.3 c0.3 1.2 0.6 28.2 0.6 60 l0 57.7 80.8 0 80.7 0 0 -46.5 0 -46.5 -34.2 0 -34.3 0 0 -13.5 0 -13.5 312 0 312 0 0 70.5 0 70.5 -25.5 0 c-22 0 -25.5 -0.2 -25.5 -1.5 0 -0.8 0.9 -1.5 2 -1.5 1.1 0 2 -0.4 2 -0.9 0 -0.5 1 -1.1 2.3 -1.4 4.4 -1.2 10.6 -6.8 12.8 -11.5 3.6 -7.9 3.9 -10.9 4.4 -37.9 l0.5 -26.1 -3.8 -0.6 c-2 -0.3 -6.3 -0.8 -9.4 -1.2 l-5.8 -0.6 0 3.6 c0 3.4 -0.2 3.6 -3.3 3.6 -2.3 0 -4.1 -0.8 -5.8 -2.6 -7.3 -7.8 -18.1 -7.1 -26.9 1.7 -6.8 6.8 -8.5 10.8 -8.5 20.4 0 11.6 4.1 18.9 13.8 25.2 6 3.8 12.5 4.1 19 0.9 3 -1.4 7.1 -2.6 9.2 -2.6 l3.8 0 -0.6 6 c-0.6 7 -1.7 8.6 -7.2 11.1 -5 2.3 -17.2 2.5 -24.1 0.4 -2.7 -0.8 -5 -1.5 -5.1 -1.5 0 0 -0.6 1.4 -1.2 3.1 -2 5.7 -1.5 6.6 3.9 8 2.8 0.7 5 1.6 5 2.1 0 0.4 1.1 0.8 2.5 0.8 1.6 0 2.5 0.6 2.5 1.5 0 1.3 -39.4 1.5 -349 1.5 l-349 0 0 -70.5z m350 50 c9.8 -1.7 13.2 -2.9 17.8 -6.4 7.1 -5.3 7.9 -10.1 8.7 -52.3 l0.7 -33.8 -6.9 0 c-3.7 0 -8.5 0.3 -10.5 0.6 l-3.7 0.6 0.6 33.2 0.5 33.1 -2.4 3.5 c-3.6 5.2 -6.1 6.1 -16 5.8 -7.5 -0.3 -9 -0.6 -11.2 -2.7 -4.7 -4.4 -5 -7.1 -4.3 -41.2 l0.7 -31.7 -3.1 -0.6 c-1.7 -0.3 -6.7 -0.6 -11.1 -0.6 l-8 0 0.7 6.4 c0.3 3.6 0.8 20.2 1 36.9 0.2 18.2 0.8 32 1.4 34.5 2 7.4 9.4 12.8 20.1 14.8 9 1.7 15.1 1.6 25 -0.1z m177.6 -0.2 c21.7 -7.4 36.3 -31.7 32.4 -54.2 -4.4 -25.2 -27.2 -43.7 -49.5 -40.1 -12.9 2.1 -26.1 12.3 -33.1 25.5 -9.9 18.7 -6.1 42 9.1 57 6.6 6.5 8.9 8.1 15.6 10.8 7.7 3.2 17.9 3.6 25.5 1z m-237.8 -4.5 c0.6 -2.4 1.4 -6.5 1.7 -9.2 l0.7 -4.8 -16.5 0.7 c-18.3 0.8 -23.3 0 -24.2 -3.8 -0.4 -1.2 -0.5 -5.6 -0.3 -9.7 l0.3 -7.5 17.3 0 17.2 0.1 0 -2.7 c0 -1.4 0.3 -5.4 0.7 -8.9 l0.6 -6.3 -15.6 0.6 c-8.6 0.3 -16.6 0.3 -17.7 0 -2.8 -0.7 -4.4 -7.4 -3.4 -13.8 1.2 -6.7 2.3 -7 22.3 -5.9 10.6 0.6 16.2 0.6 16.5 -0.1 0.6 -1.9 -1.2 -13.5 -2.4 -15 -1 -1.3 -5.7 -1.5 -29.1 -1.5 -15.3 0 -28 0.3 -28.2 0.8 -0.3 0.4 0 9.9 0.5 21.2 0.8 15 0.7 26.9 -0.2 44.2 -0.6 13 -0.9 24.2 -0.5 24.8 0.4 0.6 10.7 1 29.9 1 l29.3 0 1.1 -4.2z m122.9 2.6 c0.3 -0.9 0 -7.9 -0.7 -15.6 -0.8 -9 -0.9 -14.3 -0.3 -14.9 1.6 -1.6 10.5 -2.2 14.9 -1 3.7 1 4.3 1.6 5.9 5.9 1 2.6 2.3 6.1 3 7.7 0.7 1.7 2 5 3 7.5 0.9 2.5 2.4 6.2 3.3 8.3 l1.6 3.7 9.8 0 c5.4 0 9.8 -0.3 9.8 -0.7 0 -0.6 -1.1 -3.1 -9.4 -20.6 -6.2 -13.2 -6.1 -15.3 0.8 -22.7 15.6 -16.9 9.7 -39 -12.4 -46.6 -4.8 -1.7 -8 -1.9 -26.4 -1.6 -22.1 0.3 -25.2 0.9 -24.2 4.5 1.4 5.1 1.8 44.5 0.7 64.6 -1 17.5 -1 21.6 0.1 22.2 0.7 0.5 5.5 0.9 10.6 0.9 7.7 0 9.4 -0.3 9.9 -1.6z m177.7 0.6 c0.2 -0.3 0.6 -13.7 0.8 -29.8 l0.3 -29.2 -9.8 0 c-9.7 0 -9.8 0 -9.1 2.2 0.4 1.3 0.6 14.5 0.6 29.5 l-0.2 27.2 2.3 0.4 c2.6 0.6 14.4 0.3 15.1 -0.3z m32 0.4 c1.4 -0.5 1.6 -3.3 1.6 -20.8 0 -11 0.4 -20.6 0.8 -21.2 1.9 -2.9 7.9 -5.4 13 -5.4 4.3 0 5.8 0.5 7.7 2.5 2.5 2.4 2.5 2.5 2.5 22.8 0 14.4 0.3 20.6 1.2 21.5 1.2 1.2 12.4 1.7 15.2 0.6 1.4 -0.5 1.6 -3.6 1.6 -23.8 0 -12.7 -0.5 -24.8 -1 -26.8 -1.3 -4.6 -6.7 -9.4 -12.2 -10.9 -5.1 -1.3 -8.4 -0.4 -17 4.8 -4.1 2.4 -6.7 3.3 -9 3.1 -3 -0.3 -3.3 -0.6 -3.6 -4 -0.2 -2.1 -0.6 -3.8 -1 -3.8 -0.4 0.1 -4.5 0.7 -9.2 1.4 -6.4 1 -8.4 1.6 -8.1 2.7 1.1 3.9 2.2 31 1.8 42.7 -0.5 13 -0.5 13.3 1.6 14.2 2.6 1 11.8 1.3 14.1 0.4z m-36.1 -72.5 c7.5 -4.1 7.3 -11.5 -0.5 -15.5 -2.8 -1.5 -3.4 -1.4 -6.8 0.1 -2 0.9 -4.4 3 -5.4 4.6 -1.7 2.9 -1.7 3.1 0.5 6.3 3.3 4.8 8.2 6.6 12.2 4.5z"></path>
  <path d="M508 285.3 c-4.2 -0.7 -10.3 -5.6 -13.5 -10.8 -2.9 -4.6 -3 -5.3 -3 -15.9 0 -10.1 0.2 -11.6 2.7 -16.1 4.9 -9.4 10.4 -12.5 22.3 -12.5 8.8 0 12.7 1.4 17.5 6.1 4.9 4.9 7 11.3 7 21.3 0 12.7 -3.2 19.8 -11.4 25.3 -3.4 2.2 -5.4 2.7 -11.6 2.9 -4.1 0.1 -8.6 0 -10 -0.3z"></path>
  <path d="M412.2 256.8 c-1.3 -1.3 -1.5 -20.7 -0.3 -26.3 0.6 -2.7 1.1 -3.1 5.9 -3.8 3.4 -0.6 7.8 -0.4 12.2 0.3 5.7 1 7.4 1.7 9.5 4.2 2.2 2.6 2.5 3.9 2.5 10.8 0 14.1 -2.1 16 -18.3 16 -6.7 0 -10.7 -0.4 -11.5 -1.2z"></path>
  <path d="M698 281 l-4 -4 0 -8.1 c0 -7.9 0.1 -8.2 3.4 -11.5 3.2 -3.2 3.8 -3.4 10.3 -3.4 10.6 0 14.3 3.9 14.3 15 0 10.9 -4.5 16 -14.1 16 -5.5 0 -6.1 -0.2 -9.9 -4z"></path>
  <path d="M0 151.5 l0 -7.5 18.5 0 18.5 0 0 6.8 0 6.9 -11.2 0.6 c-6.2 0.4 -14.6 0.7 -18.5 0.7 l-7.3 0 0 -7.5z"></path>
  <path d="M54.7 158.3 c-0.4 -0.3 -0.7 -3.7 -0.7 -7.5 l0 -6.8 23 0 23 0 0 6.9 0 6.8 -6.7 0.6 c-9 0.9 -37.8 0.9 -38.6 0z"></path>
  <path d="M117.7 158.3 c-0.4 -0.3 -0.7 -3.7 -0.7 -7.5 l0 -6.8 22.3 0.2 22.2 0.3 0.3 6.4 c0.2 4.5 -0.1 6.7 -1 7.2 -1.5 1 -42.2 1.2 -43.1 0.2z"></path>
  <path d="M179.7 158.3 c-0.4 -0.3 -0.7 -3.7 -0.7 -7.5 l0 -6.8 22.5 0 22.5 0 0 6.8 0 6.9 -13.7 0.6 c-17.5 0.9 -29.8 0.9 -30.6 0z"></path>
  <path d="M241.8 158.4 c-0.5 -0.4 -0.8 -3.8 -0.8 -7.6 l0 -6.8 22.8 0.2 22.7 0.3 0.3 6.8 0.3 6.7 -14.9 0 c-8.2 0 -18.2 0.3 -22.3 0.6 -4.1 0.3 -7.7 0.3 -8.1 -0.2z"></path>
  <path d="M304.1 157.6 c-0.7 -0.9 -1.1 -3.8 -0.9 -7.3 l0.3 -5.8 22.5 0 22.5 0 0.3 5.8 c0.2 3.2 -0.1 6.4 -0.7 7 -0.6 0.8 -7.4 1.3 -21.9 1.5 -17.3 0.2 -21.1 0 -22.1 -1.2z"></path>
  <path d="M366.7 158.3 c-1.2 -1.8 -1.8 -8.4 -1.2 -11.2 l0.7 -3.1 22.3 0 22.3 0 0.7 6.1 c0.4 3.3 0.3 6.4 -0.1 6.9 -1.2 1 -44.1 2.3 -44.7 1.3z"></path>
  <path d="M430.2 158.2 c-2.2 -0.3 -2.3 -0.7 -2 -7 l0.3 -6.7 22.5 0 22.5 0 0.3 6.3 c0.2 4.4 -0.1 6.3 -1 6.6 -1.7 0.6 -39.6 1.2 -42.6 0.8z"></path>
  <path d="M617.2 158 c-2.1 -0.9 -2.3 -1.5 -2 -7.2 l0.3 -6.3 22.8 -0.3 22.7 -0.2 0 7 0 7 -15.7 0 c-8.7 0 -18 0.2 -20.8 0.5 -2.7 0.3 -6 0 -7.3 -0.5z"></path>
  <path d="M678.5 157.8 c-1.6 -1 -1.9 -4 -0.9 -10.1 l0.7 -3.7 22.1 0.2 22.1 0.3 0.3 6.3 c0.2 4.4 -0.1 6.3 -1 6.6 -2.6 0.9 -41.8 1.2 -43.3 0.4z"></path>
  <path d="M740.7 158.3 c-0.4 -0.3 -0.7 -3.7 -0.7 -7.5 l0 -6.8 13.5 0 13.5 0 0 7.5 0 7.5 -12.8 0 c-7.1 0 -13.2 -0.3 -13.5 -0.7z"></path>
  <path d="M490.4 156.6 c-0.3 -0.7 -0.4 -3.8 -0.2 -6.7 l0.3 -5.4 22.3 -0.3 22.2 -0.2 0 7 0 7 -22 0 c-17.8 0 -22.2 -0.3 -22.6 -1.4z"></path>
  <path d="M553 151 l0 -7 22.5 0 22.5 0 0 7 0 7 -22.5 0 -22.5 0 0 -7z"></path>
  <path d="M0 107 l0 -11 25 0 25 0 0 11 0 11 -25 0 -25 0 0 -11z"></path>
  <path d="M143 107 l0 -11 297.8 -0.2 297.7 -0.3 0.3 -47.7 0.2 -47.8 14 0 14 0 0 59 0 59 -312 0 -312 0 0 -11z"></path>
  <path d="M41 79.7 c0 -2.9 0.6 -3.6 5.8 -6.7 3.1 -1.8 8 -4.8 10.7 -6.5 2.8 -1.8 7.6 -4.8 10.8 -6.8 8.2 -5.3 12 -5.1 21.4 1.1 4 2.6 9.6 6.1 12.4 7.7 11 6.5 11.4 6.8 11.7 10.8 l0.3 3.7 -36.5 0 -36.6 0 0 -3.3z"></path>
  <path d="M126.3 80.7 c-1.8 -1.2 -11.5 -7.4 -21.7 -13.7 -18.4 -11.4 -18.6 -11.5 -18.6 -15 0 -3.7 1 -4.4 32.3 -23.2 3.4 -2.1 6.7 -4.1 7.3 -4.6 4.7 -4 14.3 -4.4 19.5 -0.9 1.9 1.2 6.8 4.2 10.9 6.7 4.1 2.5 9.6 5.8 12.2 7.5 2.6 1.6 7.6 4.8 11.2 7 6.1 3.7 6.6 4.3 6.6 7.6 0 3.5 -0.1 3.6 -17.7 14.6 -9.8 6.1 -18.9 11.6 -20.3 12.3 -1.3 0.7 -3.1 1.9 -3.8 2.7 -2.3 2.2 -14.1 1.6 -17.9 -1z"></path>
  <path d="M158.2 79.3 c0.3 -3.3 0.9 -4 5.8 -6.9 3 -1.8 6 -3.7 6.5 -4.1 1.1 -0.9 14.1 -9 17.8 -11 3.8 -2.2 9.8 -1.5 14.3 1.5 3.8 2.5 10.2 6.5 22.7 14.2 4.2 2.6 4.7 3.4 4.7 6.5 l0 3.5 -36.1 0 -36 0 0.3 -3.7z"></path>
  <path d="M234 75.5 c-6.3 -4.1 -16.1 -10.2 -21.7 -13.6 -10.1 -6 -10.3 -6.2 -10.3 -9.8 l0.1 -3.6 22.2 -13.7 c21.5 -13.4 22.4 -13.8 27.7 -13.8 5.9 0 3.7 -1.1 31.2 15.9 5.6 3.5 12.2 7.6 14.5 9 3.7 2.2 4.2 3.1 4.3 6.1 0 3.4 -0.4 3.8 -10.2 10 -12.9 8 -24.1 15.1 -29.4 18.4 -3.4 2.1 -5.3 2.6 -10.5 2.5 -6.2 -0.1 -6.8 -0.3 -17.9 -7.4z"></path>
  <path d="M273 79.7 c0 -2.8 0.6 -3.7 4 -5.7 4.1 -2.5 17.1 -10.6 24.6 -15.4 5.3 -3.3 11 -3.4 15.8 -0.3 3.8 2.4 16.2 10.1 23.9 14.8 4.2 2.5 4.7 3.3 4.7 6.4 l0 3.5 -36.5 0 -36.5 0 0 -3.3z"></path>
  <path d="M350.3 75.6 c-6.7 -4.1 -14.6 -9 -17.5 -10.9 -2.9 -1.8 -7.5 -4.7 -10.1 -6.3 -4.4 -2.7 -4.7 -3.2 -4.5 -6.4 0.3 -3.3 1 -3.9 11.8 -10.7 30.4 -19.2 32.5 -20.3 38 -20.3 4.7 0 8.7 1.2 10 3 0.3 0.4 2.8 2 5.7 3.6 2.9 1.6 9.1 5.4 13.8 8.4 4.7 3 11.2 7.1 14.3 9 5 3.1 5.7 4 6 7 l0.3 3.5 -21.9 13.8 c-21.8 13.6 -22 13.7 -27.8 13.7 -5.5 -0.1 -6.7 -0.5 -18.1 -7.4z"></path>
  <path d="M390.2 79.3 c0.3 -3.5 0.8 -4 10.3 -10 5.5 -3.4 11.8 -7.2 13.9 -8.4 2.2 -1.2 4.6 -2.8 5.4 -3.5 0.7 -0.8 3.4 -1.4 5.9 -1.4 3.7 0 5.8 0.8 11.2 4.3 6.3 4.1 9.9 6.4 20.4 12.8 4.2 2.5 4.7 3.3 4.7 6.4 l0 3.5 -36.1 0 -36 0 0.3 -3.7z"></path>
  <path d="M468.5 76.9 c-5.5 -3.4 -12.7 -7.9 -16 -10 -3.3 -2.1 -8.8 -5.5 -12.2 -7.5 -5.9 -3.5 -6.3 -4 -6.3 -7.3 0.1 -3.6 0.2 -3.7 17.2 -14.1 9.4 -5.8 19.4 -12 22.2 -13.8 6.9 -4.4 14.2 -4.5 20.7 -0.3 7.3 4.7 24.1 15.1 24.4 15.1 0.2 0 3.8 2.3 7.9 5 6.9 4.6 7.6 5.3 7.6 8.3 0 3.1 -0.7 3.7 -21.9 17 -21.7 13.6 -22 13.7 -27.8 13.7 -5.4 0 -6.6 -0.4 -15.8 -6.1z"></path>
  <path d="M506 79.6 c0 -2.7 0.7 -3.9 2.9 -5.5 1.6 -1.2 3.2 -2.1 3.5 -2.1 0.3 0 5.9 -3.5 12.3 -7.7 16.1 -10.5 18.2 -10.7 29.8 -2.9 4.7 3.1 8.7 5.6 9 5.6 0.3 0 1.1 0.5 1.8 1.1 0.7 0.5 3.7 2.5 6.7 4.3 4.9 2.9 5.5 3.6 5.8 6.9 l0.3 3.7 -36 0 -36.1 0 0 -3.4z"></path>
  <path d="M586.5 78.4 c-8.5 -5.4 -16.1 -10.2 -27.8 -17.5 -8.6 -5.3 -8.8 -5.5 -8.5 -8.9 0.3 -3.4 0.9 -3.9 22.2 -17.3 29.4 -18.4 25.6 -18.4 55.1 0.1 21.4 13.3 22 13.8 22.3 17.2 l0.3 3.5 -16.8 10.5 c-26.3 16.4 -27.4 17 -34.1 17 -5 0 -6.5 -0.6 -12.7 -4.6z"></path>
  <path d="M621 79.7 c0 -3 0.6 -3.6 6.8 -7.2 3.7 -2.1 9.2 -5.5 12.2 -7.5 3 -2 7.3 -4.9 9.6 -6.3 2.8 -1.9 5.3 -2.7 8.5 -2.7 4.5 0 4.3 -0.1 23.9 12.5 1.9 1.3 5.4 3.5 7.8 4.9 3.6 2.3 4.2 3.1 4.2 6.1 l0 3.5 -36.5 0 -36.5 0 0 -3.3z"></path>
  <path d="M704.9 79.7 c-3 -1.8 -13 -7.9 -22.2 -13.6 -16.6 -10.4 -16.7 -10.5 -16.7 -14 0.1 -3.6 0.2 -3.7 21.8 -17.1 20.3 -12.6 22 -13.5 26.7 -13.5 l5 0 0 3.8 c-0.1 2 -0.2 15.9 -0.3 30.7 l-0.2 27 -4.2 -0.1 c-2.9 0 -6.1 -1.1 -9.9 -3.2z"></path>
  <path d="M22 52 l0 -29 3.4 0 c2.6 0 7.2 2.4 19.3 10 8.7 5.5 17.9 11.2 20.5 12.7 4.3 2.5 4.8 3.2 4.8 6.3 0 3.5 -0.1 3.6 -20.4 16.3 -16.3 10.2 -21 12.7 -24 12.7 l-3.6 0 0 -29z"></path>
  <path d="M73.5 48 c-0.4 -0.6 -2.3 -1.9 -4.3 -3 -2 -1.2 -5.7 -3.4 -8.2 -4.9 -2.5 -1.6 -8 -5 -12.2 -7.5 -7.4 -4.4 -7.8 -4.8 -7.8 -8.1 l0 -3.5 37.5 0 37.5 0 0 3.3 c0 2.9 -0.7 3.6 -7.6 7.7 -4.1 2.5 -9.2 5.5 -11.2 6.7 -2 1.2 -4.4 2.7 -5.2 3.2 -8.8 6.1 -10.8 7.1 -14.2 7.1 -2 0 -4 -0.5 -4.3 -1z"></path>
  <path d="M186.5 46.3 c-2.2 -1.4 -5.9 -3.9 -8.2 -5.5 -2.3 -1.5 -4.6 -2.8 -5.1 -2.8 -0.6 0 -1.2 -0.3 -1.4 -0.8 -0.1 -0.4 -3.6 -2.7 -7.5 -5 -6.8 -4 -7.3 -4.5 -7.3 -7.7 l0 -3.5 37.5 0 37.5 0 0 3.3 c-0.1 3 -0.7 3.6 -8.8 8.5 -4.8 2.9 -10.3 6.3 -12.2 7.4 -1.9 1.2 -5.9 3.7 -8.9 5.5 -6.5 4 -10.3 4.2 -15.6 0.6z"></path>
  <path d="M301 45.2 c-3 -2.1 -10.6 -6.8 -16.7 -10.6 -10.9 -6.5 -11.3 -6.9 -11.3 -10.2 l0 -3.4 37 0 37 0 0 3.5 c0 3.2 -0.5 3.7 -7.2 7.7 -4 2.3 -7.5 4.5 -7.8 4.9 -0.3 0.3 -2.1 1.4 -4 2.4 -1.9 1 -3.7 2.1 -4 2.5 -1.3 1.9 -12 7 -14.6 6.9 -1.6 0 -5.3 -1.6 -8.4 -3.7z"></path>
  <path d="M413.5 42.9 c-4.9 -3.2 -10.8 -6.8 -13 -8 -9.5 -5.2 -11.5 -7 -11.5 -10.5 l0 -3.4 37 0 37 0 0 3.4 c0 3.5 -1.9 5.2 -11.5 10.5 -2.2 1.2 -6 3.5 -8.5 5.1 -10.1 6.5 -15.1 9 -17.7 8.9 -1.6 0 -6.6 -2.6 -11.8 -6z"></path>
  <path d="M530.5 43.4 c-3.8 -2.4 -11.2 -6.9 -16.2 -10 -8.8 -5.2 -9.3 -5.7 -9.3 -9 l0 -3.4 37.5 0 37.5 0 0 3.3 c0 3 -0.6 3.6 -9.8 8.9 -10.9 6.5 -20.1 12.2 -21.9 13.8 -0.7 0.5 -3.4 1 -6 0.9 -3.9 0 -6.1 -0.8 -11.8 -4.5z"></path>
  <path d="M650 46.1 c-4 -3 -16 -10.5 -23.2 -14.7 -6.1 -3.5 -6.8 -4.2 -6.8 -7.1 l0 -3.3 37.6 0 37.5 0 -0.3 3.6 c-0.3 3.3 -0.9 4 -6.8 7.5 -3.6 2.1 -7 4.3 -7.6 4.8 -0.6 0.5 -2.4 1.6 -4 2.4 -1.6 0.8 -5.4 3.1 -8.4 5.1 -4.5 3 -6.3 3.6 -10.5 3.5 -3.2 0 -5.9 -0.7 -7.5 -1.8z"></path>
  <path d="M0 2.5 c0 -2 0.5 -2.5 2.5 -2.5 2 0 2.5 0.5 2.5 2.5 0 2 -0.5 2.5 -2.5 2.5 -2 0 -2.5 -0.5 -2.5 -2.5z"></path>
 </g><g fill="#ababab">
  <path d="M694.5 324.4 c-8 -1.7 -14.4 -3.8 -14.9 -5 -0.5 -1.3 0 -4.4 2 -13.6 0.4 -1.6 0.9 -2.8 1.3 -2.8 0.3 0 3.8 1.1 7.6 2.5 3.9 1.4 9.2 2.5 12 2.5 5.1 0 12.1 -2.5 14.1 -5.1 1.4 -1.7 2.8 -7.9 1.8 -7.9 -0.4 0 -3.1 1.2 -6.1 2.6 -4.7 2.4 -6.2 2.6 -13.1 2.2 -10.9 -0.6 -17.7 -5.1 -23 -15.1 -2.5 -4.8 -2.7 -6.1 -2.7 -16.2 0 -12.9 1.2 -16.1 8.5 -23.4 5.4 -5.4 10 -7.1 18.9 -7.1 6.9 0 9.1 0.8 13.9 5.3 l3.2 3.1 0 -3.5 c0 -2 0.2 -3.8 0.5 -4 0.2 -0.3 5.5 0 11.7 0.7 6.2 0.7 11.6 1.3 12 1.3 1.1 0.1 0.8 46.1 -0.3 55.9 -1.8 15.5 -8.7 24.5 -20.9 27.1 -4.8 1 -22.2 1.3 -26.5 0.5z m18.9 -44.5 c5.4 -4.2 7.1 -11.2 4.1 -16.9 -2.1 -4 -5.3 -6 -9.8 -6 -3.1 0 -4.6 0.7 -7.3 3.4 -3 3 -3.4 4 -3.4 8.5 0 4.6 0.4 5.5 4 9.1 4.6 4.6 8.2 5.2 12.4 1.9z"></path>
  <path d="M572.2 306.3 l-2.2 -0.4 -0.1 -27.7 c-0.1 -15.2 -0.2 -29.9 -0.3 -32.7 -0.1 -4.6 0.1 -5 2.2 -4.9 1.2 0 6.8 0.1 12.5 0.2 l10.3 0.2 -0.4 32.3 c-0.2 17.7 -0.6 32.4 -0.9 32.7 -0.6 0.7 -18.2 0.9 -21.1 0.3z"></path>
  <path d="M605.1 305.9 l-2.3 -0.9 0.6 -14.3 c0.4 -7.9 0.2 -20.2 -0.4 -27.7 -0.6 -7.4 -1.2 -15.3 -1.3 -17.4 l-0.2 -4 9 -1.3 c15.1 -2.2 15 -2.2 15.3 1.2 0.5 5.6 0.9 5.8 5.4 3 10.3 -6.4 16.8 -7.7 25.1 -5.4 5.1 1.4 10.4 6.3 11.7 10.7 0.5 2.1 1 15.2 1 29.8 0 23 -0.2 26.3 -1.6 26.8 -2.9 1.1 -19.9 0.7 -21.2 -0.6 -0.9 -0.9 -1.2 -7.1 -1.2 -21.5 0 -20.3 0 -20.4 -2.5 -22.8 -1.3 -1.4 -3.4 -2.5 -4.7 -2.5 -2.4 0 -8.8 3.4 -10 5.4 -0.4 0.6 -0.8 10.2 -0.8 21.2 0 17.5 -0.2 20.3 -1.6 20.8 -2.4 0.9 -17.6 0.6 -20.3 -0.5z"></path>
  <path d="M575.9 233.8 c-5.9 -2.4 -8.6 -11 -5.3 -16.8 4.7 -7.8 19.3 -7.7 23.5 0.2 3 5.6 0.4 14.2 -4.9 16.7 -2.8 1.3 -9.8 1.3 -13.3 -0.1z"></path>
  <path d="M46 188.5 c0 -1.3 -3.2 -1.5 -23 -1.5 l-23 0 0 -15.5 0 -15.5 6.3 -0.1 c3.4 -0.1 7.6 -0.3 9.2 -0.4 1.7 -0.2 6.5 -0.3 10.8 -0.4 l7.7 -0.1 0 -4 0 -4 -17 0 -17 0 0 -16 0 -16 23.5 0 c20.2 0 23.5 -0.2 23.5 -1.5 0 -1.3 5.8 -1.5 45.8 -1.5 25.1 0 47.4 -0.3 49.5 -0.6 3.3 -0.6 3.7 -0.4 3.7 1.5 l0 2.1 310.5 0 310.5 0 0 16 0 16 -12.1 0 -12 0 0.3 4.3 0.3 4.2 9.5 0.1 c5.2 0 10.5 0.2 11.8 0.2 2.2 0.2 2.2 0.3 2.2 15.7 l0 15.5 -310.5 0 c-275.3 0 -310.5 0.2 -310.5 1.5 0 1.3 -6.2 1.5 -50 1.5 -43.8 0 -50 -0.2 -50 -1.5z m45.8 -33.3 l5.2 -0.4 0 -3.9 0 -3.9 -20 0 -20 0 0 3.8 c0 2.1 0.3 4.2 0.7 4.6 0.7 0.7 23.9 0.6 34.1 -0.2z m66 -0.1 c0.8 -0.5 1.2 -2.2 1 -4.2 l-0.3 -3.4 -19.2 -0.3 -19.3 -0.2 0 3.8 c0 2.1 0.3 4.2 0.7 4.5 0.9 1 35.6 0.8 37.1 -0.2z m58 -0.1 l5.2 0 0 -4 0 -4 -19.5 0 -19.5 0 0 3.8 c0 2.1 0.3 4.2 0.8 4.6 0.4 0.5 6.8 0.6 14.2 0.2 7.4 -0.3 15.9 -0.6 18.8 -0.6z m51.9 0 l16.4 0 -0.3 -3.7 -0.3 -3.8 -19.7 -0.3 -19.8 -0.2 0 3.8 c0 4.8 0.7 5.5 4.4 4.8 1.6 -0.3 10.2 -0.6 19.3 -0.6z m77.6 -0.9 c0.5 -0.5 0.7 -2.1 0.5 -3.7 l-0.3 -2.9 -19.4 0 -19.5 0 -0.2 3 c-0.3 5.4 0.2 5.6 19.9 5 10 -0.3 18.5 -0.9 19 -1.4z m62.3 0.4 c0.6 -0.2 0.8 -1.9 0.6 -3.9 l-0.4 -3.6 -19.4 0 c-20.9 0 -20 -0.2 -19.5 5 0.4 3.8 0.6 3.8 19.3 3.3 10.1 -0.2 18.8 -0.6 19.4 -0.8z m62.9 -3.5 l0 -3.5 -19.5 0 -19.5 0 -0.3 3.7 c-0.4 4.6 -1 4.5 21.8 3.8 l17.5 -0.5 0 -3.5z m187.5 -0.1 l0 -3.9 -19.7 0.2 -19.8 0.3 -0.3 3.3 c-0.3 2.5 0.1 3.4 1.7 4 1.1 0.4 10.1 0.6 20 0.4 l18.1 -0.3 0 -4z m61.5 0.1 l0 -3.5 -19.1 -0.3 -19.2 -0.2 -0.5 3.2 c-0.3 2 0 3.7 0.7 4.3 0.8 0.6 8.1 0.8 19.7 0.5 l18.4 -0.5 0 -3.5z m-187.5 0 l0 -4 -19.2 0.2 -19.3 0.3 -0.3 2.3 c-0.8 5.2 -0.6 5.2 19.8 5.2 l19 0 0 -4z m63 0 l0 -4 -19.5 0 -19.5 0 0 4 0 4 19.5 0 19.5 0 0 -4z"></path>
 </g><g fill="#eb7f3b">
  <path d="M46.9 101.3 c-0.1 -0.5 -0.1 -1.1 0 -1.5 0 -0.5 -10.5 -0.8 -23.4 -0.8 l-23.5 0 0 -48.1 c0 -40.3 0.2 -48.3 1.4 -49.5 1.3 -1.2 52.1 -1.4 371 -1.4 l369.6 0 -0.2 49.3 -0.3 49.2 -297.7 0.3 c-263.8 0.2 -297.8 0.4 -297.8 1.7 0 1.3 -6.2 1.5 -49.5 1.5 -27.2 0 -49.6 -0.3 -49.6 -0.7z m63 -22.9 c-0.7 -0.8 -3.3 -2.7 -5.8 -4 -5.4 -2.9 -9.2 -5.2 -18.2 -11.1 -3.6 -2.4 -7.1 -4.3 -7.7 -4.3 -0.6 0 -5 2.5 -9.9 5.6 -4.8 3.1 -10.1 6.4 -11.6 7.3 -1.6 0.9 -5.2 3.1 -8 4.8 l-5.2 3.2 33.9 0.1 c30.7 0 33.7 -0.1 32.5 -1.6z m31.3 0.3 c0.7 -0.8 2.5 -2 3.8 -2.7 5.1 -2.6 38 -23.4 38 -23.9 0 -0.3 -3 -2.4 -6.6 -4.6 -3.6 -2.2 -8.6 -5.4 -11.2 -7 -2.6 -1.7 -8.1 -5 -12.2 -7.5 -4.1 -2.5 -9 -5.5 -10.9 -6.7 -4.7 -3.2 -9.1 -2.9 -13.5 0.9 -0.6 0.5 -3.9 2.5 -7.3 4.6 -17.1 10.2 -32.3 19.8 -32.3 20.2 0 0.3 8.4 5.7 18.6 12 10.2 6.3 19.9 12.5 21.7 13.7 3.6 2.4 9.9 3 11.9 1z m85.3 0.4 c-0.3 -0.6 -4.8 -3.6 -10.1 -6.8 -5.2 -3.2 -11.4 -7 -13.7 -8.5 -7.5 -4.9 -8.2 -5.2 -11 -3.7 -3.8 2 -17.1 10.2 -17.7 10.9 -0.3 0.4 -3.1 2.1 -6.2 3.9 -3.2 1.8 -6 3.6 -6.3 4.2 -0.4 0.5 12.1 0.9 32.5 0.9 20.5 0 32.9 -0.4 32.5 -0.9z m32.9 -1.7 c5.3 -3.3 16.5 -10.4 29.4 -18.4 5.6 -3.6 10.2 -6.7 10.2 -7 -0.1 -0.3 -2 -1.7 -4.3 -3.1 -5.4 -3.3 -22.7 -14.1 -32.5 -20.2 -5.6 -3.5 -8.5 -4.7 -10.7 -4.5 -2.8 0.3 -46.4 26.5 -46.5 27.9 0 0.4 4.6 3.4 10.3 6.8 5.6 3.4 15.4 9.5 21.7 13.6 13.1 8.4 15.9 9 22.4 4.9z m82.7 1.3 c-0.6 -0.8 -3.4 -2.6 -6.2 -4.1 -2.8 -1.6 -7.9 -4.7 -11.4 -7 -15.3 -9.8 -14.8 -9.7 -18.6 -6.8 -2.4 1.8 -13.2 8.5 -21.2 13.2 -11 6.4 -12.9 6 24.7 6 28.1 0 33.7 -0.2 32.7 -1.3z m51 -12.4 c12 -7.5 21.6 -14 21.3 -14.5 -0.3 -0.5 -2.9 -2.2 -5.7 -3.9 -2.9 -1.6 -9.2 -5.6 -14.2 -8.9 -4.9 -3.2 -11.2 -7.1 -14 -8.6 -2.7 -1.5 -5.2 -3 -5.5 -3.4 -0.9 -1.3 -4.8 -3 -7 -3 -1.2 0 -5.5 2.1 -9.7 4.6 -11.7 7.1 -31.5 19.5 -34.6 21.7 l-2.9 2 4.9 3 c2.6 1.7 7.2 4.6 10.1 6.5 16.8 10.8 30 18.1 32.6 18.2 1.9 0 9.6 -4.2 24.7 -13.7z m65.4 12.7 c-0.3 -0.5 -2.7 -2.2 -5.3 -3.6 -4.9 -2.8 -10.8 -6.5 -20.3 -12.7 -6 -4 -8 -4.4 -10.1 -2.4 -0.7 0.7 -3.2 2.4 -5.5 3.8 -10.7 6.1 -23.3 14.1 -23.8 15 -0.4 0.5 12 0.9 32.5 0.9 21.6 0 32.9 -0.3 32.5 -1z m50.3 -12.6 c12 -7.5 21.9 -13.7 22 -13.9 0.4 -0.3 -14.5 -10.5 -15.3 -10.5 -0.3 0 -17.1 -10.4 -24.4 -15.1 -5.7 -3.7 -8.5 -3.6 -14.7 0.4 -2.8 1.7 -12.8 7.9 -22.2 13.7 -9.4 5.8 -17.1 10.8 -17.2 11.1 0 0.3 2.8 2.2 6.3 4.3 3.4 2 8.9 5.4 12.2 7.5 20 12.7 26.1 16.1 28.8 16.1 2 0 9.7 -4.3 24.5 -13.6z m65.7 12.7 c-0.3 -0.6 -3.1 -2.4 -6.3 -4.2 -3.1 -1.8 -5.8 -3.6 -6 -4.1 -0.2 -0.4 -0.8 -0.8 -1.3 -0.8 -0.5 0 -4.7 -2.5 -9.3 -5.6 -6.7 -4.4 -8.9 -5.4 -10.7 -4.9 -1.3 0.5 -7.4 4.1 -13.6 8.1 -6.3 4.1 -11.7 7.4 -12.1 7.4 -0.4 0 -2 1.1 -3.7 2.5 l-3 2.4 33.3 0.1 c20.5 0 33.1 -0.4 32.7 -0.9z m33.2 -2.3 c3.2 -1.8 13.3 -8 22.6 -13.8 13.2 -8.2 16.5 -10.7 15.5 -11.6 -3.7 -3.5 -43.6 -27.4 -45.9 -27.4 -2.2 0 -42 23.8 -45.6 27.3 -1 1 0.6 2.4 7.5 6.7 11.9 7.4 19.4 12.1 27.7 17.4 3.9 2.5 8.2 4.6 9.7 4.6 1.5 0 5.4 -1.5 8.5 -3.2z m81.6 1.4 c-1.1 -0.9 -4.7 -3.3 -7.8 -5.2 -3.2 -1.9 -9.4 -5.9 -13.9 -8.7 -4.4 -2.9 -8.8 -5.3 -9.5 -5.3 -0.8 0 -3.1 1.1 -5 2.4 -7.7 5.1 -19 12.3 -24.2 15.3 l-5.4 3.2 34 0 c32.3 0 33.9 -0.1 31.8 -1.7z m26.7 -25.2 c0 -14.8 -0.1 -27.3 -0.2 -27.7 -0.2 -0.5 -1 -0.8 -1.8 -0.7 -2 0 -45 26.6 -44.7 27.6 0.5 1.6 43.2 27.7 45.5 27.7 0.9 0.1 1.2 -5.9 1.2 -26.9z m-669 12.1 c10.7 -6.8 19.6 -12.5 19.7 -12.9 0.2 -0.4 -1.8 -1.9 -4.5 -3.5 -2.6 -1.5 -11.8 -7.2 -20.5 -12.7 -8.8 -5.5 -16.1 -10 -16.3 -10 -0.2 0 -0.4 11.7 -0.4 26.1 0 20.7 0.3 26 1.3 25.6 0.7 -0.2 10 -5.9 20.7 -12.6z m36 -22.1 c2.5 -1.6 5 -3.4 5.6 -3.9 0.6 -0.5 2.9 -1.9 5 -3 2.1 -1.2 7.5 -4.4 11.9 -7.1 l8 -5 -34.7 0 c-19.2 0 -34.8 0.2 -34.8 0.5 0 0.3 3.5 2.5 7.8 5.1 4.2 2.5 9.7 5.9 12.2 7.5 2.5 1.5 6.2 3.7 8.2 4.9 2 1.1 3.9 2.4 4.3 3 0.9 1.5 1.5 1.3 6.5 -2z m115.3 0.3 c7.6 -4.8 11.1 -7 21.2 -13.2 l9.9 -6.1 -34.7 0 c-19.1 0 -34.7 0.2 -34.7 0.5 0 0.2 3.3 2.3 7.3 4.7 3.9 2.3 7.4 4.6 7.5 5 0.2 0.5 0.8 0.8 1.4 0.8 0.5 0 2.8 1.3 5.1 2.8 8.7 5.9 12.2 8.2 12.5 8.2 0.1 0 2.1 -1.2 4.5 -2.7z m122.7 -4.3 c0.3 -0.4 2.1 -1.5 4 -2.5 1.9 -1 3.7 -2.1 4 -2.4 0.3 -0.4 3.9 -2.7 8 -5.1 l7.5 -4.5 -17.3 -0.3 c-9.4 -0.1 -25 -0.1 -34.5 0 l-17.2 0.3 11.5 7 c6.3 3.8 14 8.6 17 10.6 l5.5 3.7 5.5 -3 c3 -1.7 5.7 -3.4 6 -3.8z m115 0.5 c1.9 -1.2 5.3 -3.3 7.5 -4.7 2.2 -1.4 6 -3.7 8.5 -5.1 10.5 -6 12 -5.6 -26 -5.6 -34.4 -0.1 -34.5 0 -32 1.9 1.4 1.1 5 3.3 8 5 3 1.7 9.6 5.7 14.5 8.9 l9 5.8 3.5 -2 c1.9 -1.1 5.1 -3 7 -4.2z m109.3 4.5 c1.8 -1.6 8.9 -6 21.2 -13.4 l11 -6.6 -34.7 0 c-19.2 0 -34.8 0.2 -34.8 0.4 0 0.3 4.2 3 9.3 6 5 3.1 12.4 7.6 16.2 10 7.2 4.6 9.7 5.4 11.8 3.6z m119.7 -2.6 c3 -2 6.8 -4.3 8.5 -5.1 1.6 -0.9 3.2 -1.9 3.5 -2.3 0.3 -0.3 2.8 -1.9 5.5 -3.4 2.8 -1.5 6.1 -3.5 7.5 -4.6 2.5 -1.9 2.3 -2 -32.5 -2 l-35 0 10.7 6.4 c9.9 6 13.5 8.3 19.8 12.7 3.7 2.6 5.9 2.3 12 -1.7z"></path>
 </g><g fill="#3a2f70">
  <path d="M322 307.6 c-3.6 -0.7 -7.8 -1.9 -9.5 -2.8 -4.6 -2.6 -9.4 -7.6 -10.1 -10.6 -0.4 -1.5 -1 -3.1 -1.4 -3.7 -0.4 -0.5 -0.6 -7.7 -0.5 -16 0.2 -8.2 -0.1 -26.2 -0.6 -39.9 -0.6 -13.7 -0.8 -25.1 -0.5 -25.3 0.8 -0.8 22 -0.3 25.2 0.6 1.6 0.5 2.8 1.3 2.7 1.8 -0.1 0.5 -0.5 14.7 -0.9 31.4 -0.8 32.8 -0.5 35.6 4.1 39.9 1.9 1.8 4 2.5 8.3 2.7 6.7 0.4 9.7 -0.8 13 -5.7 l2.4 -3.5 -0.6 -33.1 -0.6 -33.1 3.7 -0.7 c2.1 -0.3 8.2 -0.6 13.6 -0.6 l9.7 0 0.1 11.8 c0.1 6.4 0.1 12.1 0 12.5 -0.1 0.5 -0.4 11.7 -0.7 25 -0.7 32.2 -1.8 37.8 -8.6 42.8 -4.6 3.5 -8 4.7 -17.8 6.4 -10 1.8 -21.9 1.8 -31 0.1z"></path>
  <path d="M499.1 306.3 c-3.5 -1.4 -7.5 -3.5 -9 -4.7 -8.8 -7.2 -15.7 -16.3 -18 -23.6 -0.5 -1.9 -1.6 -5.5 -2.4 -8 -1.3 -4.3 -1.6 -19.4 -0.5 -23.5 0.3 -1.1 1.1 -3.8 1.7 -6 1.5 -5.7 7.4 -15.2 12.9 -20.8 19.3 -19.7 53.1 -17.3 69.5 5 15.1 20.6 13.9 51.5 -2.7 69.1 -10.6 11.2 -19.8 15.2 -35 15.2 -8.5 -0.1 -11.1 -0.5 -16.5 -2.7z m27.7 -26.8 c7.2 -4.8 11.2 -12.6 11.2 -22.1 0 -13.8 -9.3 -24.4 -21.5 -24.4 -8.7 0 -14.8 3.9 -19.3 12.5 -2.3 4.2 -2.7 6.3 -2.7 13.1 0 7.3 0.3 8.6 3 13 3.2 5.1 9.3 10 13.5 10.7 5.2 1 11.9 -0.2 15.8 -2.8z"></path>
  <path d="M254 307 l-27.5 -0.5 0.2 -11 c0.2 -13.2 0.2 -70.3 0 -79.5 l-0.2 -6.5 31.1 -0.3 c26.6 -0.2 31.3 0 32.4 1.3 1.5 1.8 3.4 16.8 2.5 20.2 -0.6 2.4 -0.8 2.5 -6.8 1.9 -16.9 -1.6 -28.2 -1.8 -30 -0.4 -3.1 2.3 -2.3 12.2 1.1 13 0.9 0.2 8.5 0.1 16.7 -0.2 9.2 -0.4 15.5 -0.3 16.3 0.3 0.8 0.7 1.1 2.4 0.6 5.6 -0.3 2.5 -0.7 7.7 -0.9 11.5 -0.2 3.7 -0.5 7 -0.7 7.1 -0.2 0.2 -3.9 -0.1 -8.3 -0.6 -4.4 -0.5 -12.1 -0.9 -17 -0.7 l-9 0.3 -0.3 4.4 c-0.8 10.8 1.5 11.8 23.9 10.3 8.4 -0.6 15.8 -0.8 16.2 -0.5 1.2 0.7 0 16.1 -1.5 20.6 -1.4 4.1 -2.4 4.7 -7.3 4.4 -2.2 -0.1 -16.4 -0.4 -31.5 -0.7z"></path>
  <path d="M47 249.3 c0 -31.8 -0.3 -58.8 -0.6 -60 l-0.6 -2.3 50.1 0 50.1 0 0 10.5 0 10.5 34.3 0 34.2 0 0.2 49.5 0.2 49.5 -84 0 -83.9 0 0 -57.7z"></path>
  <path d="M389.2 306.1 c-1.1 -0.7 -1.2 -4.2 -0.5 -18.7 1 -21.8 1 -48.9 0 -64.6 -0.7 -11.1 -0.7 -11.7 1.2 -12.8 1.3 -0.6 11.2 -1.1 25.8 -1.3 21.1 -0.2 24.4 0 29.3 1.7 14.4 5 21.3 14.3 21.1 28.9 -0.1 11.1 -2.1 16.5 -8.7 23.6 -3 3.2 -5.4 6.1 -5.4 6.4 0 0.4 2 4.8 4.4 9.9 10.5 22.4 11.7 25.1 11.2 26.4 -0.4 1.1 -3.4 1.4 -13.9 1.4 l-13.3 0 -1.6 -3.7 c-0.9 -2.1 -2.4 -5.8 -3.3 -8.3 -1 -2.5 -2.3 -5.8 -3 -7.5 -0.7 -1.6 -2 -5.1 -3 -7.7 -1.5 -4.1 -2.3 -4.9 -5.4 -5.8 -2.1 -0.5 -4.9 -0.6 -6.6 -0.1 -3.4 0.9 -3.3 0.1 -1.6 19 1.4 14.6 1.8 14.1 -13.2 14.1 -6.7 0 -12.8 -0.4 -13.5 -0.9z m44.9 -52.6 c3.6 -1.9 4.9 -5 4.9 -11.5 0 -6.9 -3.2 -10.5 -10.5 -11.7 -3 -0.6 -7.2 -0.7 -9.2 -0.4 -3.2 0.5 -3.9 1.1 -4.4 3.6 -1.2 5.4 -1 19 0.3 20.3 1.8 1.8 15.2 1.5 18.9 -0.3z"></path>
  <path d="M46.8 107.4 c-0.2 -4.2 -0.1 -7.8 0.1 -8 0.2 -0.2 22.6 -0.4 49.8 -0.4 l49.3 0 0 8 0 7.9 -49.4 0.1 -49.4 0 -0.4 -7.6z"></path>
 </g></svg></g></g><defs><clipPath id="SvgjsClipPath1011"><rect width="1000" height="1000" x="0" y="0" rx="350" ry="350"></rect></clipPath></defs></svg>